<svg width="161" height="19" viewBox="0 0 161 19" fill="none" xmlns="http://www.w3.org/2000/svg">
<path d="M18.368 1.32V18H15.632V6.576L10.544 18H8.648L3.536 6.576V18H0.8V1.32H3.752L9.608 14.4L15.44 1.32H18.368ZM34.0841 11.064C34.0841 11.56 34.0521 12.008 33.9881 12.408H23.8841C23.9641 13.464 24.3561 14.312 25.0601 14.952C25.7641 15.592 26.6281 15.912 27.6521 15.912C29.1241 15.912 30.1641 15.296 30.7721 14.064H33.7241C33.3241 15.28 32.5961 16.28 31.5401 17.064C30.5001 17.832 29.2041 18.216 27.6521 18.216C26.3881 18.216 25.2521 17.936 24.2441 17.376C23.2521 16.8 22.4681 16 21.8921 14.976C21.3321 13.936 21.0521 12.736 21.0521 11.376C21.0521 10.016 21.3241 8.824 21.8681 7.8C22.4281 6.76 23.2041 5.96 24.1961 5.4C25.2041 4.84 26.3561 4.56 27.6521 4.56C28.9001 4.56 30.0121 4.832 30.9881 5.376C31.9641 5.92 32.7241 6.688 33.2681 7.68C33.8121 8.656 34.0841 9.784 34.0841 11.064ZM31.2281 10.2C31.2121 9.192 30.8521 8.384 30.1481 7.776C29.4441 7.168 28.5721 6.864 27.5321 6.864C26.5881 6.864 25.7801 7.168 25.1081 7.776C24.4361 8.368 24.0361 9.176 23.9081 10.2H31.2281ZM48.8966 11.064C48.8966 11.56 48.8646 12.008 48.8006 12.408H38.6966C38.7766 13.464 39.1686 14.312 39.8726 14.952C40.5766 15.592 41.4406 15.912 42.4646 15.912C43.9366 15.912 44.9766 15.296 45.5846 14.064H48.5366C48.1366 15.28 47.4086 16.28 46.3526 17.064C45.3126 17.832 44.0166 18.216 42.4646 18.216C41.2006 18.216 40.0646 17.936 39.0566 17.376C38.0646 16.8 37.2806 16 36.7046 14.976C36.1446 13.936 35.8646 12.736 35.8646 11.376C35.8646 10.016 36.1366 8.824 36.6806 7.8C37.2406 6.76 38.0166 5.96 39.0086 5.4C40.0166 4.84 41.1686 4.56 42.4646 4.56C43.7126 4.56 44.8246 4.832 45.8006 5.376C46.7766 5.92 47.5366 6.688 48.0806 7.68C48.6246 8.656 48.8966 9.784 48.8966 11.064ZM46.0406 10.2C46.0246 9.192 45.6646 8.384 44.9606 7.776C44.2566 7.168 43.3846 6.864 42.3446 6.864C41.4006 6.864 40.5926 7.168 39.9206 7.776C39.2486 8.368 38.8486 9.176 38.7206 10.2H46.0406ZM54.7811 7.008V14.328C54.7811 14.824 54.8931 15.184 55.1171 15.408C55.3571 15.616 55.7571 15.72 56.3171 15.72H57.9971V18H55.8371C54.6051 18 53.6611 17.712 53.0051 17.136C52.3491 16.56 52.0211 15.624 52.0211 14.328V7.008H50.4611V4.776H52.0211V1.488H54.7811V4.776H57.9971V7.008H54.7811ZM88.4731 1.32L83.5291 18H80.4331L76.9291 5.376L73.2091 18L70.1371 18.024L65.4091 1.32H68.3131L71.7691 14.904L75.5131 1.32H78.5851L82.0651 14.832L85.5451 1.32H88.4731ZM96.4657 18.216C95.2177 18.216 94.0897 17.936 93.0817 17.376C92.0737 16.8 91.2817 16 90.7057 14.976C90.1297 13.936 89.8417 12.736 89.8417 11.376C89.8417 10.032 90.1377 8.84 90.7297 7.8C91.3217 6.76 92.1297 5.96 93.1537 5.4C94.1777 4.84 95.3217 4.56 96.5857 4.56C97.8497 4.56 98.9937 4.84 100.018 5.4C101.042 5.96 101.85 6.76 102.442 7.8C103.034 8.84 103.33 10.032 103.33 11.376C103.33 12.72 103.026 13.912 102.418 14.952C101.81 15.992 100.978 16.8 99.9217 17.376C98.8817 17.936 97.7297 18.216 96.4657 18.216ZM96.4657 15.84C97.1697 15.84 97.8257 15.672 98.4337 15.336C99.0577 15 99.5617 14.496 99.9457 13.824C100.33 13.152 100.522 12.336 100.522 11.376C100.522 10.416 100.338 9.608 99.9697 8.952C99.6017 8.28 99.1137 7.776 98.5057 7.44C97.8977 7.104 97.2417 6.936 96.5377 6.936C95.8337 6.936 95.1777 7.104 94.5697 7.44C93.9777 7.776 93.5057 8.28 93.1537 8.952C92.8017 9.608 92.6257 10.416 92.6257 11.376C92.6257 12.8 92.9857 13.904 93.7057 14.688C94.4417 15.456 95.3617 15.84 96.4657 15.84ZM108.77 6.696C109.17 6.024 109.698 5.504 110.354 5.136C111.026 4.752 111.818 4.56 112.73 4.56V7.392H112.034C110.962 7.392 110.146 7.664 109.586 8.208C109.042 8.752 108.77 9.696 108.77 11.04V18H106.034V4.776H108.77V6.696ZM120.477 11.4L126.573 18H122.877L117.981 12.312V18H115.245V0.24H117.981V10.56L122.781 4.776H126.573L120.477 11.4ZM131.726 7.008V14.328C131.726 14.824 131.838 15.184 132.062 15.408C132.302 15.616 132.702 15.72 133.262 15.72H134.942V18H132.782C131.55 18 130.606 17.712 129.95 17.136C129.294 16.56 128.966 15.624 128.966 14.328V7.008H127.406V4.776H128.966V1.488H131.726V4.776H134.942V7.008H131.726ZM149.584 11.064C149.584 11.56 149.552 12.008 149.488 12.408H139.384C139.464 13.464 139.856 14.312 140.56 14.952C141.264 15.592 142.128 15.912 143.152 15.912C144.624 15.912 145.664 15.296 146.272 14.064H149.224C148.824 15.28 148.096 16.28 147.04 17.064C146 17.832 144.704 18.216 143.152 18.216C141.888 18.216 140.752 17.936 139.744 17.376C138.752 16.8 137.968 16 137.392 14.976C136.832 13.936 136.552 12.736 136.552 11.376C136.552 10.016 136.824 8.824 137.368 7.8C137.928 6.76 138.704 5.96 139.696 5.4C140.704 4.84 141.856 4.56 143.152 4.56C144.4 4.56 145.512 4.832 146.488 5.376C147.464 5.92 148.224 6.688 148.768 7.68C149.312 8.656 149.584 9.784 149.584 11.064ZM146.728 10.2C146.712 9.192 146.352 8.384 145.648 7.776C144.944 7.168 144.072 6.864 143.032 6.864C142.088 6.864 141.28 7.168 140.608 7.776C139.936 8.368 139.536 9.176 139.408 10.2H146.728ZM154.701 15.768H160.701V18H151.533V15.768L157.557 7.008H151.533V4.776H160.701V7.008L154.701 15.768Z" fill="#2962FF"/>
</svg>
