<svg width="48" height="24" viewBox="0 0 48 24" fill="none" xmlns="http://www.w3.org/2000/svg">
<g clip-path="url(#clip0_1998_503)">
<path d="M26.7692 23.1133L4.4878 23.1133C3.96015 23.1133 3.45411 22.8849 3.08101 22.4783C2.7079 22.0717 2.49829 21.5203 2.49829 20.9453L2.49829 7.5879C2.49829 5.57547 3.23192 3.64547 4.53779 2.22246C5.84365 0.799461 7.61479 2.67029e-05 9.46156 2.67029e-05L31.7429 2.67029e-05C32.2706 2.67029e-05 32.7766 0.228437 33.1497 0.63501C33.5228 1.04158 33.7324 1.59301 33.7324 2.16799V15.5254C33.7324 17.5378 32.9988 19.4678 31.6929 20.8908C30.3871 22.3138 28.6159 23.1133 26.7692 23.1133Z" fill="#2962FF"/>
<path d="M36.5131 5.02605L43.6028 0.472505C45.4291 -0.700464 47.9991 0.444762 47.9991 2.43153V21.3061C47.9991 23.3619 45.2704 24.4868 43.4691 23.1736L36.3794 18.0052C36.0768 17.7954 35.8285 17.5166 35.6549 17.1919C35.4812 16.8672 35.3873 16.5059 35.3809 16.1378V6.98507C35.3809 6.21088 35.8015 5.48312 36.5131 5.02605Z" fill="#0039CB"/>
</g>
<defs>
<clipPath id="clip0_1998_503">
<rect width="48" height="23.7379" fill="white"/>
</clipPath>
</defs>
</svg>
